<mxfile host="app.diagrams.net" modified="2023-11-26T12:15:25.460Z" agent="Mozilla/5.0 (Macintosh; Intel Mac OS X 10_15_7) AppleWebKit/537.36 (KHTML, like Gecko) Chrome/119.0.0.0 Safari/537.36" etag="zHCTttjQvSrNtthTRTPq" version="22.1.4" type="github">
  <diagram name="第 1 页" id="lnpWrrS2kmTIMfeJqNq4">
    <mxGraphModel dx="1434" dy="910" grid="1" gridSize="10" guides="1" tooltips="1" connect="1" arrows="1" fold="1" page="1" pageScale="1" pageWidth="1654" pageHeight="2336" math="0" shadow="0">
      <root>
        <mxCell id="0" />
        <mxCell id="1" parent="0" />
        <mxCell id="U7PHfJZk1O9fnKTGtjuX-1" value="single-spa" style="rounded=0;whiteSpace=wrap;html=1;fillColor=#dae8fc;strokeColor=#6c8ebf;" vertex="1" parent="1">
          <mxGeometry x="290" y="270" width="180" height="40" as="geometry" />
        </mxCell>
        <mxCell id="U7PHfJZk1O9fnKTGtjuX-2" value="&lt;font style=&quot;font-size: 10px;&quot;&gt;微前端解决方案&lt;/font&gt;" style="text;html=1;strokeColor=none;fillColor=none;align=center;verticalAlign=middle;whiteSpace=wrap;rounded=0;" vertex="1" parent="1">
          <mxGeometry x="325" y="305" width="110" height="30" as="geometry" />
        </mxCell>
        <mxCell id="U7PHfJZk1O9fnKTGtjuX-3" value="" style="endArrow=classic;html=1;rounded=0;exitX=0.409;exitY=1.033;exitDx=0;exitDy=0;exitPerimeter=0;" edge="1" parent="1">
          <mxGeometry width="50" height="50" relative="1" as="geometry">
            <mxPoint x="379.5" y="334" as="sourcePoint" />
            <mxPoint x="379.51" y="373.01" as="targetPoint" />
          </mxGeometry>
        </mxCell>
        <mxCell id="U7PHfJZk1O9fnKTGtjuX-4" value="业务七巧板" style="rounded=0;whiteSpace=wrap;html=1;fillColor=#f8cecc;strokeColor=#b85450;" vertex="1" parent="1">
          <mxGeometry x="290" y="381" width="180" height="40" as="geometry" />
        </mxCell>
        <mxCell id="U7PHfJZk1O9fnKTGtjuX-5" value="" style="strokeWidth=2;html=1;shape=mxgraph.flowchart.annotation_2;align=left;labelPosition=right;pointerEvents=1;rotation=90;" vertex="1" parent="1">
          <mxGeometry x="375" y="311" width="10" height="260" as="geometry" />
        </mxCell>
        <mxCell id="U7PHfJZk1O9fnKTGtjuX-6" value="营销、房源、客源、楼盘、交易、人事、系统" style="text;html=1;strokeColor=none;fillColor=none;align=center;verticalAlign=middle;whiteSpace=wrap;rounded=0;" vertex="1" parent="1">
          <mxGeometry x="230" y="451" width="300" height="30" as="geometry" />
        </mxCell>
        <mxCell id="U7PHfJZk1O9fnKTGtjuX-7" value="BFF服务层" style="rounded=0;whiteSpace=wrap;html=1;fillColor=#d5e8d4;strokeColor=#82b366;" vertex="1" parent="1">
          <mxGeometry x="290" y="180" width="180" height="40" as="geometry" />
        </mxCell>
        <mxCell id="U7PHfJZk1O9fnKTGtjuX-8" value="" style="endArrow=classic;html=1;rounded=0;exitX=0.409;exitY=1.033;exitDx=0;exitDy=0;exitPerimeter=0;" edge="1" parent="1">
          <mxGeometry width="50" height="50" relative="1" as="geometry">
            <mxPoint x="379.5" y="224" as="sourcePoint" />
            <mxPoint x="379.51" y="263.01" as="targetPoint" />
          </mxGeometry>
        </mxCell>
        <mxCell id="U7PHfJZk1O9fnKTGtjuX-9" value="朱雀发布系统" style="rounded=0;whiteSpace=wrap;html=1;fillColor=#ffe6cc;strokeColor=#d79b00;" vertex="1" parent="1">
          <mxGeometry x="290" y="80" width="180" height="40" as="geometry" />
        </mxCell>
        <mxCell id="U7PHfJZk1O9fnKTGtjuX-10" value="" style="endArrow=classic;html=1;rounded=0;exitX=0.409;exitY=1.033;exitDx=0;exitDy=0;exitPerimeter=0;" edge="1" parent="1">
          <mxGeometry width="50" height="50" relative="1" as="geometry">
            <mxPoint x="379.5" y="140" as="sourcePoint" />
            <mxPoint x="379.51" y="179.01" as="targetPoint" />
          </mxGeometry>
        </mxCell>
        <mxCell id="U7PHfJZk1O9fnKTGtjuX-11" value="&lt;font style=&quot;font-size: 10px;&quot;&gt;独有的构建平台系统&lt;/font&gt;" style="text;html=1;strokeColor=none;fillColor=none;align=center;verticalAlign=middle;whiteSpace=wrap;rounded=0;" vertex="1" parent="1">
          <mxGeometry x="320" y="115" width="120" height="30" as="geometry" />
        </mxCell>
        <mxCell id="U7PHfJZk1O9fnKTGtjuX-12" value="" style="rounded=0;whiteSpace=wrap;html=1;" vertex="1" parent="1">
          <mxGeometry x="360" y="590" width="960" height="550" as="geometry" />
        </mxCell>
        <mxCell id="U7PHfJZk1O9fnKTGtjuX-13" value="" style="rounded=0;whiteSpace=wrap;html=1;" vertex="1" parent="1">
          <mxGeometry x="360" y="590" width="240" height="550" as="geometry" />
        </mxCell>
        <mxCell id="U7PHfJZk1O9fnKTGtjuX-14" value="" style="rounded=0;whiteSpace=wrap;html=1;gradientColor=none;" vertex="1" parent="1">
          <mxGeometry x="600" y="590" width="240" height="550" as="geometry" />
        </mxCell>
        <mxCell id="U7PHfJZk1O9fnKTGtjuX-15" value="" style="rounded=0;whiteSpace=wrap;html=1;" vertex="1" parent="1">
          <mxGeometry x="840" y="590" width="240" height="550" as="geometry" />
        </mxCell>
        <mxCell id="U7PHfJZk1O9fnKTGtjuX-16" value="" style="rounded=0;whiteSpace=wrap;html=1;" vertex="1" parent="1">
          <mxGeometry x="1080" y="590" width="240" height="550" as="geometry" />
        </mxCell>
        <mxCell id="U7PHfJZk1O9fnKTGtjuX-17" value="主应用single-spa" style="text;html=1;strokeColor=#6c8ebf;fillColor=#dae8fc;align=center;verticalAlign=middle;whiteSpace=wrap;rounded=0;" vertex="1" parent="1">
          <mxGeometry x="360" y="590" width="240" height="30" as="geometry" />
        </mxCell>
        <mxCell id="U7PHfJZk1O9fnKTGtjuX-18" value="朱雀系统" style="text;html=1;strokeColor=#82b366;fillColor=#d5e8d4;align=center;verticalAlign=middle;whiteSpace=wrap;rounded=0;" vertex="1" parent="1">
          <mxGeometry x="600" y="590" width="240" height="30" as="geometry" />
        </mxCell>
        <mxCell id="U7PHfJZk1O9fnKTGtjuX-19" value="阿里云" style="text;html=1;strokeColor=#d79b00;fillColor=#ffe6cc;align=center;verticalAlign=middle;whiteSpace=wrap;rounded=0;" vertex="1" parent="1">
          <mxGeometry x="840" y="590" width="240" height="30" as="geometry" />
        </mxCell>
        <mxCell id="U7PHfJZk1O9fnKTGtjuX-20" value="存储" style="text;html=1;strokeColor=#d6b656;fillColor=#fff2cc;align=center;verticalAlign=middle;whiteSpace=wrap;rounded=0;" vertex="1" parent="1">
          <mxGeometry x="1080" y="590" width="240" height="30" as="geometry" />
        </mxCell>
        <mxCell id="U7PHfJZk1O9fnKTGtjuX-21" value="代码仓库" style="shape=cylinder3;whiteSpace=wrap;html=1;boundedLbl=1;backgroundOutline=1;size=15;sketch=1;curveFitting=1;jiggle=2;" vertex="1" parent="1">
          <mxGeometry x="230" y="640" width="60" height="80" as="geometry" />
        </mxCell>
        <mxCell id="U7PHfJZk1O9fnKTGtjuX-22" value="" style="endArrow=classic;html=1;rounded=0;entryX=0.208;entryY=0.164;entryDx=0;entryDy=0;entryPerimeter=0;sketch=1;curveFitting=1;jiggle=2;" edge="1" parent="1" target="U7PHfJZk1O9fnKTGtjuX-14">
          <mxGeometry width="50" height="50" relative="1" as="geometry">
            <mxPoint x="300" y="680" as="sourcePoint" />
            <mxPoint x="350" y="630" as="targetPoint" />
          </mxGeometry>
        </mxCell>
        <mxCell id="U7PHfJZk1O9fnKTGtjuX-23" value="根据环境构建打包" style="rounded=0;whiteSpace=wrap;html=1;sketch=1;curveFitting=1;jiggle=2;" vertex="1" parent="1">
          <mxGeometry x="660" y="660" width="120" height="40" as="geometry" />
        </mxCell>
        <mxCell id="U7PHfJZk1O9fnKTGtjuX-24" value="打包部署" style="text;html=1;align=center;verticalAlign=middle;whiteSpace=wrap;rounded=0;" vertex="1" parent="1">
          <mxGeometry x="440" y="656" width="60" height="30" as="geometry" />
        </mxCell>
        <mxCell id="U7PHfJZk1O9fnKTGtjuX-26" value="同步CDN&lt;br&gt;同步redis" style="rounded=0;whiteSpace=wrap;html=1;sketch=1;curveFitting=1;jiggle=2;" vertex="1" parent="1">
          <mxGeometry x="660" y="760" width="120" height="40" as="geometry" />
        </mxCell>
        <mxCell id="U7PHfJZk1O9fnKTGtjuX-27" value="" style="endArrow=classic;html=1;rounded=0;exitX=0.5;exitY=1;exitDx=0;exitDy=0;" edge="1" parent="1" source="U7PHfJZk1O9fnKTGtjuX-23" target="U7PHfJZk1O9fnKTGtjuX-26">
          <mxGeometry width="50" height="50" relative="1" as="geometry">
            <mxPoint x="760" y="740" as="sourcePoint" />
            <mxPoint x="810" y="690" as="targetPoint" />
          </mxGeometry>
        </mxCell>
        <mxCell id="U7PHfJZk1O9fnKTGtjuX-30" value="" style="edgeStyle=orthogonalEdgeStyle;rounded=0;orthogonalLoop=1;jettySize=auto;html=1;" edge="1" parent="1" source="U7PHfJZk1O9fnKTGtjuX-28" target="U7PHfJZk1O9fnKTGtjuX-26">
          <mxGeometry relative="1" as="geometry" />
        </mxCell>
        <mxCell id="U7PHfJZk1O9fnKTGtjuX-28" value="构建完成" style="text;html=1;align=center;verticalAlign=middle;whiteSpace=wrap;rounded=0;" vertex="1" parent="1">
          <mxGeometry x="690" y="710" width="60" height="30" as="geometry" />
        </mxCell>
        <mxCell id="U7PHfJZk1O9fnKTGtjuX-29" value="环境名称&lt;br&gt;应用名称&lt;br&gt;资源JSON配置" style="rounded=0;whiteSpace=wrap;html=1;sketch=1;curveFitting=1;jiggle=2;" vertex="1" parent="1">
          <mxGeometry x="1150" y="656" width="120" height="104" as="geometry" />
        </mxCell>
        <mxCell id="U7PHfJZk1O9fnKTGtjuX-32" value="" style="curved=1;endArrow=classic;html=1;rounded=0;entryX=0;entryY=0.5;entryDx=0;entryDy=0;sketch=1;curveFitting=1;jiggle=2;" edge="1" parent="1" target="U7PHfJZk1O9fnKTGtjuX-29">
          <mxGeometry width="50" height="50" relative="1" as="geometry">
            <mxPoint x="790" y="780" as="sourcePoint" />
            <mxPoint x="840" y="730" as="targetPoint" />
            <Array as="points">
              <mxPoint x="840" y="780" />
              <mxPoint x="980" y="780" />
              <mxPoint x="1000" y="708" />
            </Array>
          </mxGeometry>
        </mxCell>
        <mxCell id="U7PHfJZk1O9fnKTGtjuX-33" value="后端服务写入数据库" style="text;html=1;align=center;verticalAlign=middle;whiteSpace=wrap;rounded=0;" vertex="1" parent="1">
          <mxGeometry x="900" y="730" width="150" height="30" as="geometry" />
        </mxCell>
        <mxCell id="U7PHfJZk1O9fnKTGtjuX-35" value="浏览器访问" style="rounded=0;whiteSpace=wrap;html=1;sketch=1;curveFitting=1;jiggle=2;" vertex="1" parent="1">
          <mxGeometry x="210" y="910" width="100" height="160" as="geometry" />
        </mxCell>
        <mxCell id="U7PHfJZk1O9fnKTGtjuX-36" value="Node BFF&lt;br&gt;组装HTML（主应用 + 子应用）" style="rounded=0;whiteSpace=wrap;html=1;sketch=1;curveFitting=1;jiggle=2;dashed=1;" vertex="1" parent="1">
          <mxGeometry x="870" y="900" width="180" height="160" as="geometry" />
        </mxCell>
        <mxCell id="U7PHfJZk1O9fnKTGtjuX-38" value="" style="curved=1;endArrow=classic;html=1;rounded=0;exitX=0.592;exitY=1.029;exitDx=0;exitDy=0;exitPerimeter=0;entryX=1;entryY=0.5;entryDx=0;entryDy=0;sketch=1;curveFitting=1;jiggle=2;" edge="1" parent="1" source="U7PHfJZk1O9fnKTGtjuX-29" target="U7PHfJZk1O9fnKTGtjuX-36">
          <mxGeometry width="50" height="50" relative="1" as="geometry">
            <mxPoint x="780" y="820" as="sourcePoint" />
            <mxPoint x="830" y="770" as="targetPoint" />
            <Array as="points">
              <mxPoint x="1220" y="860" />
              <mxPoint x="1200" y="950" />
            </Array>
          </mxGeometry>
        </mxCell>
        <mxCell id="U7PHfJZk1O9fnKTGtjuX-39" value="读取配置" style="text;html=1;align=center;verticalAlign=middle;whiteSpace=wrap;rounded=0;" vertex="1" parent="1">
          <mxGeometry x="1125" y="890" width="150" height="30" as="geometry" />
        </mxCell>
        <mxCell id="U7PHfJZk1O9fnKTGtjuX-41" value="" style="endArrow=classic;html=1;rounded=0;entryX=0;entryY=0.25;entryDx=0;entryDy=0;strokeWidth=1;shadow=0;" edge="1" parent="1">
          <mxGeometry width="50" height="50" relative="1" as="geometry">
            <mxPoint x="310" y="930" as="sourcePoint" />
            <mxPoint x="870" y="930" as="targetPoint" />
          </mxGeometry>
        </mxCell>
        <mxCell id="U7PHfJZk1O9fnKTGtjuX-42" value="" style="endArrow=classic;html=1;rounded=0;entryX=1.01;entryY=0.681;entryDx=0;entryDy=0;strokeWidth=1;shadow=0;exitX=0;exitY=0.75;exitDx=0;exitDy=0;entryPerimeter=0;" edge="1" parent="1">
          <mxGeometry width="50" height="50" relative="1" as="geometry">
            <mxPoint x="870" y="961.04" as="sourcePoint" />
            <mxPoint x="311" y="960" as="targetPoint" />
          </mxGeometry>
        </mxCell>
        <mxCell id="U7PHfJZk1O9fnKTGtjuX-43" value="请求" style="text;html=1;align=center;verticalAlign=middle;whiteSpace=wrap;rounded=0;" vertex="1" parent="1">
          <mxGeometry x="440" y="907" width="60" height="30" as="geometry" />
        </mxCell>
        <mxCell id="U7PHfJZk1O9fnKTGtjuX-44" value="返回HTML" style="text;html=1;align=center;verticalAlign=middle;whiteSpace=wrap;rounded=0;" vertex="1" parent="1">
          <mxGeometry x="680" y="958" width="60" height="30" as="geometry" />
        </mxCell>
        <mxCell id="U7PHfJZk1O9fnKTGtjuX-45" value="主应用运行&lt;br&gt;激活子应用" style="rounded=0;whiteSpace=wrap;html=1;sketch=1;curveFitting=1;jiggle=2;" vertex="1" parent="1">
          <mxGeometry x="385" y="990" width="195" height="130" as="geometry" />
        </mxCell>
        <mxCell id="U7PHfJZk1O9fnKTGtjuX-46" value="" style="endArrow=classic;html=1;rounded=0;entryX=-0.015;entryY=0.446;entryDx=0;entryDy=0;entryPerimeter=0;sketch=1;curveFitting=1;jiggle=2;" edge="1" parent="1" target="U7PHfJZk1O9fnKTGtjuX-45">
          <mxGeometry width="50" height="50" relative="1" as="geometry">
            <mxPoint x="310" y="1050" as="sourcePoint" />
            <mxPoint x="360" y="1000" as="targetPoint" />
          </mxGeometry>
        </mxCell>
        <mxCell id="U7PHfJZk1O9fnKTGtjuX-47" value="执行JS" style="text;html=1;align=center;verticalAlign=middle;whiteSpace=wrap;rounded=0;" vertex="1" parent="1">
          <mxGeometry x="310" y="1023" width="60" height="30" as="geometry" />
        </mxCell>
        <mxCell id="U7PHfJZk1O9fnKTGtjuX-48" value="浏览器访问" style="rounded=0;whiteSpace=wrap;html=1;sketch=1;curveFitting=1;jiggle=2;" vertex="1" parent="1">
          <mxGeometry x="190" y="1385" width="70" height="360" as="geometry" />
        </mxCell>
        <mxCell id="U7PHfJZk1O9fnKTGtjuX-49" value="" style="rounded=0;whiteSpace=wrap;html=1;sketch=1;curveFitting=1;jiggle=2;" vertex="1" parent="1">
          <mxGeometry x="375" y="1300" width="35" height="520" as="geometry" />
        </mxCell>
        <mxCell id="U7PHfJZk1O9fnKTGtjuX-50" value="" style="rounded=0;whiteSpace=wrap;html=1;sketch=1;curveFitting=1;jiggle=2;" vertex="1" parent="1">
          <mxGeometry x="462.5" y="1300" width="35" height="520" as="geometry" />
        </mxCell>
        <mxCell id="U7PHfJZk1O9fnKTGtjuX-51" value="" style="rounded=0;whiteSpace=wrap;html=1;fillColor=#dae8fc;strokeColor=#6c8ebf;" vertex="1" parent="1">
          <mxGeometry x="540" y="1300" width="210" height="520" as="geometry" />
        </mxCell>
        <mxCell id="U7PHfJZk1O9fnKTGtjuX-52" value="" style="rounded=0;whiteSpace=wrap;html=1;" vertex="1" parent="1">
          <mxGeometry x="800" y="1300" width="210" height="200" as="geometry" />
        </mxCell>
        <mxCell id="U7PHfJZk1O9fnKTGtjuX-53" value="主应用" style="rounded=0;whiteSpace=wrap;html=1;" vertex="1" parent="1">
          <mxGeometry x="800" y="1340" width="210" height="40" as="geometry" />
        </mxCell>
        <mxCell id="U7PHfJZk1O9fnKTGtjuX-54" value="子应用1" style="rounded=0;whiteSpace=wrap;html=1;" vertex="1" parent="1">
          <mxGeometry x="800" y="1380" width="210" height="40" as="geometry" />
        </mxCell>
        <mxCell id="U7PHfJZk1O9fnKTGtjuX-55" value="子应用2" style="rounded=0;whiteSpace=wrap;html=1;" vertex="1" parent="1">
          <mxGeometry x="800" y="1420" width="210" height="40" as="geometry" />
        </mxCell>
        <mxCell id="U7PHfJZk1O9fnKTGtjuX-56" value="58云测试环境" style="rounded=0;whiteSpace=wrap;html=1;" vertex="1" parent="1">
          <mxGeometry x="800" y="1300" width="210" height="40" as="geometry" />
        </mxCell>
        <mxCell id="U7PHfJZk1O9fnKTGtjuX-57" value="......." style="rounded=0;whiteSpace=wrap;html=1;" vertex="1" parent="1">
          <mxGeometry x="800" y="1460" width="210" height="40" as="geometry" />
        </mxCell>
        <mxCell id="U7PHfJZk1O9fnKTGtjuX-58" value="" style="rounded=0;whiteSpace=wrap;html=1;" vertex="1" parent="1">
          <mxGeometry x="800" y="1620" width="210" height="200" as="geometry" />
        </mxCell>
        <mxCell id="U7PHfJZk1O9fnKTGtjuX-59" value="主应用" style="rounded=0;whiteSpace=wrap;html=1;" vertex="1" parent="1">
          <mxGeometry x="800" y="1660" width="210" height="40" as="geometry" />
        </mxCell>
        <mxCell id="U7PHfJZk1O9fnKTGtjuX-60" value="主应用1" style="rounded=0;whiteSpace=wrap;html=1;" vertex="1" parent="1">
          <mxGeometry x="800" y="1700" width="210" height="40" as="geometry" />
        </mxCell>
        <mxCell id="U7PHfJZk1O9fnKTGtjuX-61" value="主应用2" style="rounded=0;whiteSpace=wrap;html=1;" vertex="1" parent="1">
          <mxGeometry x="800" y="1740" width="210" height="40" as="geometry" />
        </mxCell>
        <mxCell id="U7PHfJZk1O9fnKTGtjuX-62" value="58云稳定环境" style="rounded=0;whiteSpace=wrap;html=1;" vertex="1" parent="1">
          <mxGeometry x="800" y="1620" width="210" height="40" as="geometry" />
        </mxCell>
        <mxCell id="U7PHfJZk1O9fnKTGtjuX-63" value="........" style="rounded=0;whiteSpace=wrap;html=1;" vertex="1" parent="1">
          <mxGeometry x="800" y="1780" width="210" height="40" as="geometry" />
        </mxCell>
        <mxCell id="U7PHfJZk1O9fnKTGtjuX-64" value="&lt;b&gt;主应用优化&lt;/b&gt;&lt;br&gt;&lt;div style=&quot;&quot;&gt;&lt;span style=&quot;background-color: initial;&quot;&gt;1、获取子应用HTML，服务器端解析scripts + style&lt;/span&gt;&lt;/div&gt;&lt;div style=&quot;&quot;&gt;&lt;span style=&quot;background-color: initial;&quot;&gt;2、缓存策略&lt;/span&gt;&lt;/div&gt;" style="rounded=0;whiteSpace=wrap;html=1;fillColor=#dae8fc;strokeColor=#6c8ebf;" vertex="1" parent="1">
          <mxGeometry x="1090" y="1470" width="110" height="180" as="geometry" />
        </mxCell>
        <mxCell id="U7PHfJZk1O9fnKTGtjuX-65" value="网关" style="text;html=1;strokeColor=none;fillColor=none;align=center;verticalAlign=middle;whiteSpace=wrap;rounded=0;rotation=90;" vertex="1" parent="1">
          <mxGeometry x="362.5" y="1550" width="60" height="30" as="geometry" />
        </mxCell>
        <mxCell id="U7PHfJZk1O9fnKTGtjuX-66" value="内网调用域名" style="text;html=1;strokeColor=none;fillColor=none;align=center;verticalAlign=middle;whiteSpace=wrap;rounded=0;rotation=90;" vertex="1" parent="1">
          <mxGeometry x="435" y="1550" width="90" height="30" as="geometry" />
        </mxCell>
        <mxCell id="U7PHfJZk1O9fnKTGtjuX-67" value="代理服务器" style="ellipse;shape=cloud;whiteSpace=wrap;html=1;" vertex="1" parent="1">
          <mxGeometry x="540" y="1300" width="100" height="60" as="geometry" />
        </mxCell>
        <mxCell id="U7PHfJZk1O9fnKTGtjuX-69" value="Map&amp;lt;Cluster, IP&amp;gt;" style="shape=cylinder3;whiteSpace=wrap;html=1;boundedLbl=1;backgroundOutline=1;size=15;" vertex="1" parent="1">
          <mxGeometry x="560" y="1390" width="170" height="80" as="geometry" />
        </mxCell>
        <mxCell id="U7PHfJZk1O9fnKTGtjuX-70" value="用户Cookie映射IP" style="rhombus;whiteSpace=wrap;html=1;" vertex="1" parent="1">
          <mxGeometry x="560" y="1520" width="170" height="90" as="geometry" />
        </mxCell>
        <mxCell id="U7PHfJZk1O9fnKTGtjuX-72" value="" style="curved=1;endArrow=classic;html=1;rounded=0;exitX=0.5;exitY=1;exitDx=0;exitDy=0;entryX=0;entryY=0.5;entryDx=0;entryDy=0;" edge="1" parent="1" source="U7PHfJZk1O9fnKTGtjuX-70" target="U7PHfJZk1O9fnKTGtjuX-60">
          <mxGeometry width="50" height="50" relative="1" as="geometry">
            <mxPoint x="670" y="1710" as="sourcePoint" />
            <mxPoint x="720" y="1660" as="targetPoint" />
            <Array as="points">
              <mxPoint x="640" y="1720" />
            </Array>
          </mxGeometry>
        </mxCell>
        <mxCell id="U7PHfJZk1O9fnKTGtjuX-73" value="" style="endArrow=classic;html=1;rounded=0;exitX=0.5;exitY=1;exitDx=0;exitDy=0;exitPerimeter=0;entryX=0.5;entryY=0;entryDx=0;entryDy=0;" edge="1" parent="1" source="U7PHfJZk1O9fnKTGtjuX-69" target="U7PHfJZk1O9fnKTGtjuX-70">
          <mxGeometry width="50" height="50" relative="1" as="geometry">
            <mxPoint x="780" y="1650" as="sourcePoint" />
            <mxPoint x="830" y="1600" as="targetPoint" />
          </mxGeometry>
        </mxCell>
        <mxCell id="U7PHfJZk1O9fnKTGtjuX-76" value="没有命中相应的IP" style="text;html=1;strokeColor=none;fillColor=none;align=center;verticalAlign=middle;whiteSpace=wrap;rounded=0;" vertex="1" parent="1">
          <mxGeometry x="640" y="1680" width="60" height="30" as="geometry" />
        </mxCell>
        <mxCell id="U7PHfJZk1O9fnKTGtjuX-77" value="" style="curved=1;endArrow=classic;html=1;rounded=0;exitX=1;exitY=0.5;exitDx=0;exitDy=0;entryX=0;entryY=0.75;entryDx=0;entryDy=0;" edge="1" parent="1" source="U7PHfJZk1O9fnKTGtjuX-70" target="U7PHfJZk1O9fnKTGtjuX-54">
          <mxGeometry width="50" height="50" relative="1" as="geometry">
            <mxPoint x="655" y="1620" as="sourcePoint" />
            <mxPoint x="780" y="1410" as="targetPoint" />
            <Array as="points">
              <mxPoint x="780" y="1560" />
              <mxPoint x="770" y="1430" />
            </Array>
          </mxGeometry>
        </mxCell>
        <mxCell id="U7PHfJZk1O9fnKTGtjuX-78" value="命中相应的IP" style="text;html=1;strokeColor=none;fillColor=none;align=center;verticalAlign=middle;whiteSpace=wrap;rounded=0;" vertex="1" parent="1">
          <mxGeometry x="750" y="1510" width="60" height="30" as="geometry" />
        </mxCell>
        <mxCell id="U7PHfJZk1O9fnKTGtjuX-80" value="" style="endArrow=classic;html=1;rounded=0;entryX=-0.014;entryY=0.383;entryDx=0;entryDy=0;entryPerimeter=0;exitX=1;exitY=0.322;exitDx=0;exitDy=0;exitPerimeter=0;" edge="1" parent="1" source="U7PHfJZk1O9fnKTGtjuX-48" target="U7PHfJZk1O9fnKTGtjuX-51">
          <mxGeometry width="50" height="50" relative="1" as="geometry">
            <mxPoint x="310" y="1500" as="sourcePoint" />
            <mxPoint x="360" y="1450" as="targetPoint" />
          </mxGeometry>
        </mxCell>
        <mxCell id="U7PHfJZk1O9fnKTGtjuX-81" value="" style="endArrow=classic;html=1;rounded=0;entryX=-0.014;entryY=0.383;entryDx=0;entryDy=0;entryPerimeter=0;exitX=1;exitY=0.708;exitDx=0;exitDy=0;exitPerimeter=0;" edge="1" parent="1" source="U7PHfJZk1O9fnKTGtjuX-48">
          <mxGeometry width="50" height="50" relative="1" as="geometry">
            <mxPoint x="313" y="1640.5" as="sourcePoint" />
            <mxPoint x="540" y="1639.5" as="targetPoint" />
          </mxGeometry>
        </mxCell>
        <mxCell id="U7PHfJZk1O9fnKTGtjuX-82" value="&lt;font style=&quot;font-size: 10px;&quot;&gt;主应用&lt;br&gt;/solar/*&lt;/font&gt;" style="text;html=1;strokeColor=none;fillColor=none;align=center;verticalAlign=middle;whiteSpace=wrap;rounded=0;" vertex="1" parent="1">
          <mxGeometry x="255" y="1470" width="130" height="30" as="geometry" />
        </mxCell>
        <mxCell id="U7PHfJZk1O9fnKTGtjuX-83" value="&lt;font style=&quot;font-size: 10px;&quot;&gt;子应用&lt;br&gt;/muggle/property/*&lt;br&gt;/muggle/customer/*&lt;br&gt;&lt;/font&gt;" style="text;html=1;strokeColor=none;fillColor=none;align=center;verticalAlign=middle;whiteSpace=wrap;rounded=0;" vertex="1" parent="1">
          <mxGeometry x="245" y="1650" width="130" height="50" as="geometry" />
        </mxCell>
        <mxCell id="U7PHfJZk1O9fnKTGtjuX-86" value="" style="endArrow=none;html=1;rounded=0;fillColor=#ffe6cc;strokeColor=#d79b00;strokeWidth=2;" edge="1" parent="1">
          <mxGeometry width="50" height="50" relative="1" as="geometry">
            <mxPoint x="1140" y="1850" as="sourcePoint" />
            <mxPoint x="1140" y="1650" as="targetPoint" />
          </mxGeometry>
        </mxCell>
        <mxCell id="U7PHfJZk1O9fnKTGtjuX-87" value="" style="endArrow=none;html=1;rounded=0;fillColor=#ffe6cc;strokeColor=#d79b00;strokeWidth=2;" edge="1" parent="1">
          <mxGeometry width="50" height="50" relative="1" as="geometry">
            <mxPoint x="1140" y="1850" as="sourcePoint" />
            <mxPoint x="480" y="1850" as="targetPoint" />
          </mxGeometry>
        </mxCell>
        <mxCell id="U7PHfJZk1O9fnKTGtjuX-88" value="" style="endArrow=classic;html=1;rounded=0;entryX=0.5;entryY=1;entryDx=0;entryDy=0;fillColor=#ffe6cc;strokeColor=#d79b00;strokeWidth=2;" edge="1" parent="1" target="U7PHfJZk1O9fnKTGtjuX-50">
          <mxGeometry width="50" height="50" relative="1" as="geometry">
            <mxPoint x="480" y="1850" as="sourcePoint" />
            <mxPoint x="470" y="1920" as="targetPoint" />
          </mxGeometry>
        </mxCell>
        <mxCell id="U7PHfJZk1O9fnKTGtjuX-89" value="请求获取子应用HTML" style="text;html=1;strokeColor=none;fillColor=none;align=center;verticalAlign=middle;whiteSpace=wrap;rounded=0;" vertex="1" parent="1">
          <mxGeometry x="770" y="1850" width="150" height="30" as="geometry" />
        </mxCell>
        <mxCell id="U7PHfJZk1O9fnKTGtjuX-91" value="" style="endArrow=classic;html=1;rounded=0;entryX=0;entryY=0.5;entryDx=0;entryDy=0;fillColor=#ffe6cc;strokeColor=#d79b00;exitX=1;exitY=0.5;exitDx=0;exitDy=0;dashed=1;" edge="1" parent="1" source="U7PHfJZk1O9fnKTGtjuX-59" target="U7PHfJZk1O9fnKTGtjuX-64">
          <mxGeometry width="50" height="50" relative="1" as="geometry">
            <mxPoint x="1010" y="1640" as="sourcePoint" />
            <mxPoint x="1060" y="1590" as="targetPoint" />
          </mxGeometry>
        </mxCell>
        <mxCell id="U7PHfJZk1O9fnKTGtjuX-93" value="" style="endArrow=classic;html=1;rounded=0;entryX=-0.055;entryY=0.106;entryDx=0;entryDy=0;entryPerimeter=0;fillColor=#ffe6cc;strokeColor=#d79b00;exitX=1;exitY=0.5;exitDx=0;exitDy=0;dashed=1;" edge="1" parent="1" source="U7PHfJZk1O9fnKTGtjuX-53" target="U7PHfJZk1O9fnKTGtjuX-64">
          <mxGeometry width="50" height="50" relative="1" as="geometry">
            <mxPoint x="1010" y="1330" as="sourcePoint" />
            <mxPoint x="1090" y="1250" as="targetPoint" />
          </mxGeometry>
        </mxCell>
        <mxCell id="U7PHfJZk1O9fnKTGtjuX-94" value="" style="ellipse;shape=cloud;whiteSpace=wrap;html=1;" vertex="1" parent="1">
          <mxGeometry x="801" y="1304" width="30" height="32" as="geometry" />
        </mxCell>
        <mxCell id="U7PHfJZk1O9fnKTGtjuX-95" value="" style="ellipse;shape=cloud;whiteSpace=wrap;html=1;" vertex="1" parent="1">
          <mxGeometry x="800" y="1624" width="30" height="32" as="geometry" />
        </mxCell>
      </root>
    </mxGraphModel>
  </diagram>
</mxfile>
